<mxfile host="app.diagrams.net" agent="Mozilla/5.0 (Windows NT 10.0; Win64; x64) AppleWebKit/537.36 (KHTML, like Gecko) Chrome/134.0.0.0 Safari/537.36 Edg/134.0.0.0" version="26.1.1">
  <diagram name="第 1 页" id="5eiwZfFAc0PaHUMPImRc">
    <mxGraphModel dx="1413" dy="734" grid="1" gridSize="10" guides="1" tooltips="1" connect="1" arrows="1" fold="1" page="1" pageScale="1" pageWidth="827" pageHeight="1169" math="0" shadow="0">
      <root>
        <mxCell id="0" />
        <mxCell id="1" parent="0" />
        <mxCell id="IBKrIwUGf1fX_2VAVnKV-1" value="" style="shape=actor;whiteSpace=wrap;html=1;" vertex="1" parent="1">
          <mxGeometry x="220" y="460" width="40" height="60" as="geometry" />
        </mxCell>
        <mxCell id="IBKrIwUGf1fX_2VAVnKV-2" value="" style="shape=actor;whiteSpace=wrap;html=1;" vertex="1" parent="1">
          <mxGeometry x="560" y="460" width="40" height="60" as="geometry" />
        </mxCell>
        <mxCell id="IBKrIwUGf1fX_2VAVnKV-3" value="1.3.1" style="swimlane;fontStyle=0;childLayout=stackLayout;horizontal=1;startSize=26;fillColor=none;horizontalStack=0;resizeParent=1;resizeParentMax=0;resizeLast=0;collapsible=1;marginBottom=0;html=1;" vertex="1" parent="1">
          <mxGeometry x="344" y="280" width="140" height="48" as="geometry" />
        </mxCell>
        <mxCell id="IBKrIwUGf1fX_2VAVnKV-4" value="餐饮管理系统" style="text;strokeColor=none;fillColor=none;align=center;verticalAlign=top;spacingLeft=4;spacingRight=4;overflow=hidden;rotatable=0;points=[[0,0.5],[1,0.5]];portConstraint=eastwest;whiteSpace=wrap;html=1;" vertex="1" parent="IBKrIwUGf1fX_2VAVnKV-3">
          <mxGeometry y="26" width="140" height="22" as="geometry" />
        </mxCell>
        <mxCell id="IBKrIwUGf1fX_2VAVnKV-7" value="" style="edgeStyle=segmentEdgeStyle;endArrow=classic;html=1;curved=0;rounded=0;endSize=8;startSize=8;" edge="1" parent="1">
          <mxGeometry width="50" height="50" relative="1" as="geometry">
            <mxPoint x="240" y="460" as="sourcePoint" />
            <mxPoint x="362" y="330" as="targetPoint" />
            <Array as="points">
              <mxPoint x="240" y="420" />
              <mxPoint x="362" y="420" />
            </Array>
          </mxGeometry>
        </mxCell>
        <mxCell id="IBKrIwUGf1fX_2VAVnKV-8" value="" style="edgeStyle=segmentEdgeStyle;endArrow=classic;html=1;curved=0;rounded=0;endSize=8;startSize=8;exitX=0;exitY=0.75;exitDx=0;exitDy=0;" edge="1" parent="1">
          <mxGeometry width="50" height="50" relative="1" as="geometry">
            <mxPoint x="580.94" y="460" as="sourcePoint" />
            <mxPoint x="460" y="330" as="targetPoint" />
            <Array as="points">
              <mxPoint x="581" y="420" />
              <mxPoint x="460" y="420" />
            </Array>
          </mxGeometry>
        </mxCell>
        <mxCell id="IBKrIwUGf1fX_2VAVnKV-9" value="" style="edgeStyle=segmentEdgeStyle;endArrow=classic;html=1;curved=0;rounded=0;endSize=8;startSize=8;" edge="1" parent="1">
          <mxGeometry width="50" height="50" relative="1" as="geometry">
            <mxPoint x="380" y="330" as="sourcePoint" />
            <mxPoint x="260" y="510" as="targetPoint" />
            <Array as="points">
              <mxPoint x="380" y="330" />
              <mxPoint x="380" y="510" />
            </Array>
          </mxGeometry>
        </mxCell>
        <mxCell id="IBKrIwUGf1fX_2VAVnKV-10" value="" style="edgeStyle=segmentEdgeStyle;endArrow=classic;html=1;curved=0;rounded=0;endSize=8;startSize=8;" edge="1" parent="1">
          <mxGeometry width="50" height="50" relative="1" as="geometry">
            <mxPoint x="430" y="330" as="sourcePoint" />
            <mxPoint x="560" y="510" as="targetPoint" />
            <Array as="points">
              <mxPoint x="430" y="330" />
              <mxPoint x="430" y="510" />
            </Array>
          </mxGeometry>
        </mxCell>
        <mxCell id="IBKrIwUGf1fX_2VAVnKV-11" value="" style="swimlane;shape=mxgraph.bootstrap.anchor;strokeColor=#666666;fillColor=#ffffff;fontColor=#666666;fontStyle=0;childLayout=stackLayout;horizontal=0;startSize=0;horizontalStack=1;resizeParent=1;resizeParentMax=0;resizeLast=0;collapsible=0;marginBottom=0;whiteSpace=wrap;html=1;" vertex="1" parent="1">
          <mxGeometry x="20" y="290" width="165" height="30" as="geometry" />
        </mxCell>
        <mxCell id="IBKrIwUGf1fX_2VAVnKV-12" value="&lt;font style=&quot;font-size: 12px;&quot;&gt;10&lt;/font&gt;" style="text;strokeColor=#008CFF;align=center;verticalAlign=middle;spacingLeft=10;spacingRight=10;overflow=hidden;points=[[0,0.5],[1,0.5]];portConstraint=eastwest;rotatable=0;whiteSpace=wrap;html=1;shape=mxgraph.mockup.leftButton;rSize=10;fillColor=#008CFF;fontColor=#ffffff;fontSize=17;fontStyle=1;" vertex="1" parent="IBKrIwUGf1fX_2VAVnKV-11">
          <mxGeometry width="40" height="30" as="geometry" />
        </mxCell>
        <mxCell id="IBKrIwUGf1fX_2VAVnKV-15" value="&lt;font style=&quot;font-size: 12px;&quot;&gt;订餐信息&lt;/font&gt;" style="text;strokeColor=inherit;align=center;verticalAlign=middle;spacingLeft=10;spacingRight=10;overflow=hidden;points=[[0,0.5],[1,0.5]];portConstraint=eastwest;rotatable=0;whiteSpace=wrap;html=1;shape=mxgraph.mockup.rightButton;rSize=10;fillColor=inherit;fontColor=inherit;fontSize=17;fontStyle=1;" vertex="1" parent="IBKrIwUGf1fX_2VAVnKV-11">
          <mxGeometry x="40" width="125" height="30" as="geometry" />
        </mxCell>
        <mxCell id="IBKrIwUGf1fX_2VAVnKV-16" style="edgeStyle=orthogonalEdgeStyle;rounded=0;orthogonalLoop=1;jettySize=auto;html=1;exitX=1;exitY=0.5;exitDx=0;exitDy=0;" edge="1" parent="IBKrIwUGf1fX_2VAVnKV-11" source="IBKrIwUGf1fX_2VAVnKV-12" target="IBKrIwUGf1fX_2VAVnKV-12">
          <mxGeometry relative="1" as="geometry" />
        </mxCell>
        <mxCell id="IBKrIwUGf1fX_2VAVnKV-17" value="" style="swimlane;shape=mxgraph.bootstrap.anchor;strokeColor=#666666;fillColor=#ffffff;fontColor=#666666;fontStyle=0;childLayout=stackLayout;horizontal=0;startSize=0;horizontalStack=1;resizeParent=1;resizeParentMax=0;resizeLast=0;collapsible=0;marginBottom=0;whiteSpace=wrap;html=1;" vertex="1" parent="1">
          <mxGeometry x="700" y="290" width="165" height="30" as="geometry" />
        </mxCell>
        <mxCell id="IBKrIwUGf1fX_2VAVnKV-18" value="&lt;font style=&quot;font-size: 12px;&quot;&gt;10&lt;/font&gt;" style="text;strokeColor=#008CFF;align=center;verticalAlign=middle;spacingLeft=10;spacingRight=10;overflow=hidden;points=[[0,0.5],[1,0.5]];portConstraint=eastwest;rotatable=0;whiteSpace=wrap;html=1;shape=mxgraph.mockup.leftButton;rSize=10;fillColor=#008CFF;fontColor=#ffffff;fontSize=17;fontStyle=1;" vertex="1" parent="IBKrIwUGf1fX_2VAVnKV-17">
          <mxGeometry width="40" height="30" as="geometry" />
        </mxCell>
        <mxCell id="IBKrIwUGf1fX_2VAVnKV-19" value="&lt;font style=&quot;font-size: 12px;&quot;&gt;订餐信息&lt;/font&gt;" style="text;strokeColor=inherit;align=center;verticalAlign=middle;spacingLeft=10;spacingRight=10;overflow=hidden;points=[[0,0.5],[1,0.5]];portConstraint=eastwest;rotatable=0;whiteSpace=wrap;html=1;shape=mxgraph.mockup.rightButton;rSize=10;fillColor=inherit;fontColor=inherit;fontSize=17;fontStyle=1;" vertex="1" parent="IBKrIwUGf1fX_2VAVnKV-17">
          <mxGeometry x="40" width="125" height="30" as="geometry" />
        </mxCell>
        <mxCell id="IBKrIwUGf1fX_2VAVnKV-20" style="edgeStyle=orthogonalEdgeStyle;rounded=0;orthogonalLoop=1;jettySize=auto;html=1;exitX=1;exitY=0.5;exitDx=0;exitDy=0;" edge="1" parent="IBKrIwUGf1fX_2VAVnKV-17" source="IBKrIwUGf1fX_2VAVnKV-18" target="IBKrIwUGf1fX_2VAVnKV-18">
          <mxGeometry relative="1" as="geometry" />
        </mxCell>
        <mxCell id="IBKrIwUGf1fX_2VAVnKV-21" value="" style="swimlane;shape=mxgraph.bootstrap.anchor;strokeColor=#666666;fillColor=#ffffff;fontColor=#666666;fontStyle=0;childLayout=stackLayout;horizontal=0;startSize=0;horizontalStack=1;resizeParent=1;resizeParentMax=0;resizeLast=0;collapsible=0;marginBottom=0;whiteSpace=wrap;html=1;" vertex="1" parent="1">
          <mxGeometry x="319" y="130" width="165" height="30" as="geometry" />
        </mxCell>
        <mxCell id="IBKrIwUGf1fX_2VAVnKV-22" value="&lt;font style=&quot;font-size: 12px;&quot;&gt;10&lt;/font&gt;" style="text;strokeColor=#008CFF;align=center;verticalAlign=middle;spacingLeft=10;spacingRight=10;overflow=hidden;points=[[0,0.5],[1,0.5]];portConstraint=eastwest;rotatable=0;whiteSpace=wrap;html=1;shape=mxgraph.mockup.leftButton;rSize=10;fillColor=#008CFF;fontColor=#ffffff;fontSize=17;fontStyle=1;" vertex="1" parent="IBKrIwUGf1fX_2VAVnKV-21">
          <mxGeometry width="40" height="30" as="geometry" />
        </mxCell>
        <mxCell id="IBKrIwUGf1fX_2VAVnKV-23" value="&lt;font style=&quot;font-size: 12px;&quot;&gt;订餐信息&lt;/font&gt;" style="text;strokeColor=inherit;align=center;verticalAlign=middle;spacingLeft=10;spacingRight=10;overflow=hidden;points=[[0,0.5],[1,0.5]];portConstraint=eastwest;rotatable=0;whiteSpace=wrap;html=1;shape=mxgraph.mockup.rightButton;rSize=10;fillColor=inherit;fontColor=inherit;fontSize=17;fontStyle=1;" vertex="1" parent="IBKrIwUGf1fX_2VAVnKV-21">
          <mxGeometry x="40" width="125" height="30" as="geometry" />
        </mxCell>
        <mxCell id="IBKrIwUGf1fX_2VAVnKV-24" style="edgeStyle=orthogonalEdgeStyle;rounded=0;orthogonalLoop=1;jettySize=auto;html=1;exitX=1;exitY=0.5;exitDx=0;exitDy=0;" edge="1" parent="IBKrIwUGf1fX_2VAVnKV-21" source="IBKrIwUGf1fX_2VAVnKV-22" target="IBKrIwUGf1fX_2VAVnKV-22">
          <mxGeometry relative="1" as="geometry" />
        </mxCell>
        <mxCell id="IBKrIwUGf1fX_2VAVnKV-25" value="" style="endArrow=classic;html=1;rounded=0;" edge="1" parent="1">
          <mxGeometry width="50" height="50" relative="1" as="geometry">
            <mxPoint x="564" y="312.5" as="sourcePoint" />
            <mxPoint x="700" y="312.5" as="targetPoint" />
            <Array as="points">
              <mxPoint x="494" y="312.5" />
            </Array>
          </mxGeometry>
        </mxCell>
        <mxCell id="IBKrIwUGf1fX_2VAVnKV-26" value="" style="endArrow=classic;html=1;rounded=0;" edge="1" parent="1">
          <mxGeometry width="50" height="50" relative="1" as="geometry">
            <mxPoint x="690" y="291" as="sourcePoint" />
            <mxPoint x="492" y="290.5" as="targetPoint" />
            <Array as="points">
              <mxPoint x="492" y="290" />
            </Array>
          </mxGeometry>
        </mxCell>
        <mxCell id="IBKrIwUGf1fX_2VAVnKV-28" value="" style="endArrow=classic;html=1;rounded=0;" edge="1" parent="1">
          <mxGeometry width="50" height="50" relative="1" as="geometry">
            <mxPoint x="325" y="291" as="sourcePoint" />
            <mxPoint x="185" y="290.5" as="targetPoint" />
            <Array as="points">
              <mxPoint x="185" y="290" />
            </Array>
          </mxGeometry>
        </mxCell>
        <mxCell id="IBKrIwUGf1fX_2VAVnKV-30" value="" style="endArrow=classic;html=1;rounded=0;" edge="1" parent="1">
          <mxGeometry width="50" height="50" relative="1" as="geometry">
            <mxPoint x="261" y="319" as="sourcePoint" />
            <mxPoint x="331" y="320" as="targetPoint" />
            <Array as="points">
              <mxPoint x="191" y="319" />
            </Array>
          </mxGeometry>
        </mxCell>
        <mxCell id="IBKrIwUGf1fX_2VAVnKV-32" value="" style="endArrow=classic;html=1;rounded=0;" edge="1" parent="1">
          <mxGeometry width="50" height="50" relative="1" as="geometry">
            <mxPoint x="370" y="170" as="sourcePoint" />
            <mxPoint x="370" y="270" as="targetPoint" />
          </mxGeometry>
        </mxCell>
        <mxCell id="IBKrIwUGf1fX_2VAVnKV-33" value="" style="endArrow=classic;html=1;rounded=0;" edge="1" parent="1">
          <mxGeometry width="50" height="50" relative="1" as="geometry">
            <mxPoint x="440" y="270" as="sourcePoint" />
            <mxPoint x="440" y="170" as="targetPoint" />
          </mxGeometry>
        </mxCell>
        <mxCell id="IBKrIwUGf1fX_2VAVnKV-34" value="事务" style="text;html=1;align=center;verticalAlign=middle;resizable=0;points=[];autosize=1;strokeColor=none;fillColor=none;" vertex="1" parent="1">
          <mxGeometry x="265" y="388" width="50" height="30" as="geometry" />
        </mxCell>
        <mxCell id="IBKrIwUGf1fX_2VAVnKV-35" value="事务" style="text;html=1;align=center;verticalAlign=middle;resizable=0;points=[];autosize=1;strokeColor=none;fillColor=none;" vertex="1" parent="1">
          <mxGeometry x="275" y="508" width="50" height="30" as="geometry" />
        </mxCell>
        <mxCell id="IBKrIwUGf1fX_2VAVnKV-36" value="事务" style="text;html=1;align=center;verticalAlign=middle;resizable=0;points=[];autosize=1;strokeColor=none;fillColor=none;" vertex="1" parent="1">
          <mxGeometry x="475" y="388" width="50" height="30" as="geometry" />
        </mxCell>
        <mxCell id="IBKrIwUGf1fX_2VAVnKV-37" value="事务" style="text;html=1;align=center;verticalAlign=middle;resizable=0;points=[];autosize=1;strokeColor=none;fillColor=none;" vertex="1" parent="1">
          <mxGeometry x="455" y="518" width="50" height="30" as="geometry" />
        </mxCell>
        <mxCell id="IBKrIwUGf1fX_2VAVnKV-38" value="订餐信息更新" style="text;html=1;align=center;verticalAlign=middle;resizable=0;points=[];autosize=1;strokeColor=none;fillColor=none;" vertex="1" parent="1">
          <mxGeometry x="185" y="250" width="100" height="30" as="geometry" />
        </mxCell>
        <mxCell id="IBKrIwUGf1fX_2VAVnKV-39" value="订餐信息查询" style="text;html=1;align=center;verticalAlign=middle;resizable=0;points=[];autosize=1;strokeColor=none;fillColor=none;" vertex="1" parent="1">
          <mxGeometry x="185" y="328" width="100" height="30" as="geometry" />
        </mxCell>
        <mxCell id="IBKrIwUGf1fX_2VAVnKV-40" value="菜谱信息查询" style="text;html=1;align=center;verticalAlign=middle;resizable=0;points=[];autosize=1;strokeColor=none;fillColor=none;" vertex="1" parent="1">
          <mxGeometry x="240" y="198" width="100" height="30" as="geometry" />
        </mxCell>
        <mxCell id="IBKrIwUGf1fX_2VAVnKV-41" value="菜谱信息更新" style="text;html=1;align=center;verticalAlign=middle;resizable=0;points=[];autosize=1;strokeColor=none;fillColor=none;" vertex="1" parent="1">
          <mxGeometry x="440" y="198" width="100" height="30" as="geometry" />
        </mxCell>
        <mxCell id="IBKrIwUGf1fX_2VAVnKV-42" value="结算信息查询" style="text;html=1;align=center;verticalAlign=middle;resizable=0;points=[];autosize=1;strokeColor=none;fillColor=none;" vertex="1" parent="1">
          <mxGeometry x="510" y="258" width="100" height="30" as="geometry" />
        </mxCell>
        <mxCell id="IBKrIwUGf1fX_2VAVnKV-43" value="结算信息更新" style="text;html=1;align=center;verticalAlign=middle;resizable=0;points=[];autosize=1;strokeColor=none;fillColor=none;" vertex="1" parent="1">
          <mxGeometry x="500" y="318" width="100" height="30" as="geometry" />
        </mxCell>
      </root>
    </mxGraphModel>
  </diagram>
</mxfile>
